<?xml version="1.0" encoding="iso-8859-1"?>
<!-- Generator: Adobe Illustrator 19.0.0, SVG Export Plug-In . SVG Version: 6.00 Build 0)  -->
<svg version="1.1" id="Layer_1" xmlns="http://www.w3.org/2000/svg" xmlns:xlink="http://www.w3.org/1999/xlink" x="0px" y="0px"
	 viewBox="0 0 472.62 472.62" style="enable-background:new 0 0 472.62 472.62;" xml:space="preserve">
<g>
	<g>
		<path d="M407.587,65.029c-55.1-55.098-144.436-55.098-199.536,0l-52.667,52.668c-35.682,35.682-93.582,53.4-145.347,54.447
			c-9.061,0.183-13.394,11.178-6.985,17.586l279.835,279.835c6.409,6.409,17.403,2.077,17.586-6.986
			c1.049-51.764,18.765-109.664,54.447-145.346l52.667-52.666C462.687,209.466,462.687,120.13,407.587,65.029z"/>
	</g>
</g>
<g>
	<g>
		<path d="M81.172,295.693c-14.74,26.797-10.801,61.125,11.913,83.838c22.714,22.714,57.042,26.652,83.84,11.914L81.172,295.693z"/>
	</g>
</g>
<g>
	<g>
		<path d="M461.462,11.159c-14.877-14.875-38.997-14.875-53.873,0c-5.633,5.635-9.114,12.596-10.48,19.875
			c8.676,5.819,16.853,12.521,24.406,20.076c7.599,7.599,14.237,15.796,19.994,24.412c7.309-1.359,14.301-4.836,19.954-10.491
			C476.339,50.154,476.339,26.036,461.462,11.159z"/>
	</g>
</g>
<g>
</g>
<g>
</g>
<g>
</g>
<g>
</g>
<g>
</g>
<g>
</g>
<g>
</g>
<g>
</g>
<g>
</g>
<g>
</g>
<g>
</g>
<g>
</g>
<g>
</g>
<g>
</g>
<g>
</g>
</svg>
