<svg xmlns="http://www.w3.org/2000/svg" width="200" height="200" data-name="Layer 1" viewBox="0 0 200 200"><path d="M131.25,143a3.13,3.13,0,0,1,3.13,3.12v3.13a3.13,3.13,0,0,1-3.13,3.12H68.75a3.13,3.13,0,0,1-3.13-3.12v-3.13A3.13,3.13,0,0,1,68.75,143Zm29.69-95.31a3.12,3.12,0,0,1,3.12,3.12v78.13a3.12,3.12,0,0,1-3.12,3.12H39.06a3.12,3.12,0,0,1-3.12-3.12V50.78a3.12,3.12,0,0,1,3.12-3.12ZM154.69,57H45.31v65.63H154.69ZM89.49,71.28a3.17,3.17,0,0,1,1.51.39l27.36,15.15a3.13,3.13,0,0,1,1.22,4.25,3,3,0,0,1-1.22,1.22L91,107.44a3.12,3.12,0,0,1-4.25-1.21,3.24,3.24,0,0,1-.39-1.52V74.41A3.13,3.13,0,0,1,89.49,71.28ZM95.74,85v9.09L104,89.56Z"/></svg>