<svg xmlns="http://www.w3.org/2000/svg" width="100" height="100" enable-background="new 0 0 100 100" version="1.0" viewBox="0 0 100 100"><path fill="none" stroke="#000" stroke-linecap="round" stroke-linejoin="round" stroke-miterlimit="10" stroke-width="2" d="  M82.5,49.998c0,17.95-14.553,32.502-32.499,32.502C32.049,82.5,17.5,67.947,17.5,49.998C17.5,32.049,32.049,17.5,50.001,17.5  C67.947,17.5,82.5,32.049,82.5,49.998z"/><path fill="none" stroke="#000" stroke-linecap="round" stroke-linejoin="round" stroke-miterlimit="10" stroke-width="2" d="  M42.501,39.997c0,2.763-2.239,5.002-5,5.002c-2.765,0-5.002-2.239-5.002-5.002c0-2.76,2.237-4.999,5.002-4.999  C40.262,34.998,42.501,37.237,42.501,39.997z"/><circle cx="62.5" cy="39.997" r="4.999" fill="none" stroke="#000" stroke-linecap="round" stroke-linejoin="round" stroke-miterlimit="10" stroke-width="2"/><path fill="none" stroke="#000" stroke-linecap="round" stroke-linejoin="round" stroke-miterlimit="10" stroke-width="2" d="  M65.002,55c-0.823,1.984-2.025,3.77-3.518,5.268c-1.498,1.492-3.283,2.693-5.269,3.518c-1.915,0.795-4.013,1.236-6.215,1.236  c-2.204,0-4.299-0.441-6.214-1.236c-1.984-0.824-3.772-2.025-5.268-3.518c-1.496-1.498-2.698-3.285-3.522-5.27  c0.824,1.984,2.026,3.771,3.522,5.27c1.495,1.492,3.283,2.693,5.268,3.518c1.915,0.795,4.01,1.236,6.214,1.236  c2.202,0,4.3-0.441,6.215-1.236c1.985-0.824,3.771-2.025,5.269-3.518C62.977,58.77,64.179,56.984,65.002,55z"/></svg>