<?xml version="1.0" encoding="iso-8859-1"?>
<!-- Generator: Adobe Illustrator 19.0.0, SVG Export Plug-In . SVG Version: 6.00 Build 0)  -->
<svg version="1.1" id="Capa_1" xmlns="http://www.w3.org/2000/svg" xmlns:xlink="http://www.w3.org/1999/xlink" x="0px" y="0px"
	 viewBox="0 0 480.256 480.256" style="enable-background:new 0 0 480.256 480.256;" xml:space="preserve">
<g>
	<g>
		<path d="M81.92,127.59C36.864,127.59,0,164.454,0,209.51v17.408c0,43.008,33.28,78.336,76.288,81.408v122.368
			c0,8.704,6.656,15.36,15.36,15.36h54.272c8.704,0,15.36-6.656,15.36-15.36V308.838h8.704V127.59H81.92z"/>
	</g>
</g>
<g>
	<g>
		<path d="M473.6,36.966c-4.096-3.072-9.728-3.584-14.336-1.536L206.336,142.95v150.016l252.928,107.52
			c7.68,3.072,16.896-0.512,19.968-8.192c1.024-2.048,1.024-4.096,1.024-6.144V49.766C480.256,44.646,477.696,40.038,473.6,36.966z"
			/>
	</g>
</g>
<g>
</g>
<g>
</g>
<g>
</g>
<g>
</g>
<g>
</g>
<g>
</g>
<g>
</g>
<g>
</g>
<g>
</g>
<g>
</g>
<g>
</g>
<g>
</g>
<g>
</g>
<g>
</g>
<g>
</g>
</svg>
